<svg style="height: 512px; width: 512px;" xmlns="http://www.w3.org/2000/svg" width="512" height="512"><rect id="backgroundrect" width="100%" height="100%" x="0" y="0" fill="none" stroke="none"/><g class="currentLayer" style=""><title>Layer 1</title><path d="M47.82065451517701,56.62297669798136 h414.2477111816406 v400.694091796875 H47.82065451517701 z" fill="#e98a8a" fill-opacity="1" id="svg_1" class="selected" opacity="1" transform="rotate(0.394918, 254.945, 256.97)"/><g class="" style="" id="svg_2"><path d="M74.5 36A38.5 38.5 0 0 0 36 74.5v363A38.5 38.5 0 0 0 74.5 476h363a38.5 38.5 0 0 0 38.5-38.5v-363A38.5 38.5 0 0 0 437.5 36h-363zm48.97 36.03A50 50 0 0 1 172 122a50 50 0 0 1-100 0 50 50 0 0 1 51.47-49.97zm268 0A50 50 0 0 1 440 122a50 50 0 0 1-100 0 50 50 0 0 1 51.47-49.97zM256 206a50 50 0 0 1 0 100 50 50 0 0 1 0-100zM123.47 340.03A50 50 0 0 1 172 390a50 50 0 0 1-100 0 50 50 0 0 1 51.47-49.97zm268 0A50 50 0 0 1 440 390a50 50 0 0 1-100 0 50 50 0 0 1 51.47-49.97z" fill="#fff" fill-opacity="1" id="svg_3"/></g></g></svg>